<?xml version="1.0" standalone="no"?>
<!DOCTYPE svg PUBLIC "-//W3C//DTD SVG 20010904//EN"
 "http://www.w3.org/TR/2001/REC-SVG-20010904/DTD/svg10.dtd">
<svg version="1.0" xmlns="http://www.w3.org/2000/svg"
 width="500.000000pt" height="500.000000pt" viewBox="0 0 500.000000 500.000000"
 preserveAspectRatio="xMidYMid meet">
<metadata>
Created by potrace 1.15, written by Peter Selinger 2001-2017
</metadata>
<g transform="translate(0.000000,500.000000) scale(0.100000,-0.100000)"
fill="#000000" stroke="none">
<path d="M2062 4813 c22 -43 20 -105 -5 -164 -27 -66 -49 -174 -49 -242 1 -78
26 -223 47 -270 82 -184 105 -224 177 -297 78 -80 137 -129 187 -155 17 -8 31
-19 31 -23 0 -10 45 -29 100 -42 25 -6 56 -13 70 -17 14 -3 49 -6 78 -7 l53
-1 26 -57 c14 -31 23 -64 19 -73 -5 -15 -9 -14 -36 5 -46 33 -245 125 -335
155 -319 106 -698 120 -1017 37 -351 -93 -687 -306 -916 -581 -150 -180 -287
-438 -346 -651 -51 -183 -68 -305 -68 -495 0 -142 3 -176 33 -338 72 -389 292
-765 599 -1021 416 -348 960 -490 1480 -387 126 25 124 24 247 66 177 61 371
166 518 282 75 59 295 278 295 294 0 5 -214 9 -539 9 l-540 0 -27 23 -27 23
-4 435 c-3 239 -6 435 -7 436 -1 1 -63 3 -137 4 -164 1 -186 5 -206 35 -41 64
6 129 357 498 198 209 299 314 421 440 69 72 144 150 165 174 61 68 115 88
167 61 12 -7 65 -49 117 -93 109 -93 421 -352 495 -411 27 -22 56 -46 63 -53
29 -27 28 -7 -5 91 -111 328 -318 621 -593 837 -44 35 -80 67 -80 70 0 4 19 7
43 8 23 1 68 4 99 7 163 17 153 18 184 -28 28 -43 104 -125 104 -112 0 4 19
-7 42 -24 23 -17 47 -31 52 -31 6 0 24 -7 40 -15 34 -18 103 -42 171 -60 28
-8 64 -19 80 -26 35 -14 49 -16 135 -24 153 -14 203 -13 269 7 71 20 116 30
144 29 9 0 17 5 17 11 0 6 9 8 20 5 10 -3 20 -2 22 2 2 4 48 31 103 60 55 29
107 59 116 67 8 8 21 14 27 14 21 0 154 144 213 231 32 47 86 111 120 142 l63
56 -60 -1 c-75 -1 -92 8 -249 132 -118 94 -192 130 -295 146 -19 3 -42 8 -50
11 -62 25 -303 32 -337 10 -8 -5 -13 -4 -13 2 0 6 -6 9 -12 6 -7 -2 -41 -6
-76 -9 -40 -3 -85 -16 -126 -36 -35 -16 -67 -30 -71 -30 -41 0 -337 -185 -360
-226 -5 -10 -16 -24 -22 -32 -7 -7 -13 -17 -13 -22 0 -5 -6 -15 -13 -22 -31
-32 -56 -77 -71 -130 -16 -57 -17 -58 -54 -59 -38 -1 -108 -5 -174 -12 -21 -2
-38 -2 -38 0 0 2 19 30 42 61 83 113 201 212 252 212 34 0 116 85 116 120 -1
42 -55 91 -77 69 -5 -5 -24 -11 -41 -14 -18 -2 -44 -13 -60 -24 -52 -36 -193
-203 -267 -313 -21 -32 -39 -58 -41 -58 -2 0 -17 27 -34 59 -25 51 -27 61 -15
71 22 18 65 111 71 156 8 49 8 197 1 292 -15 191 -116 373 -291 525 -104 89
-166 121 -311 157 -85 21 -175 58 -175 72 0 4 -6 8 -14 8 -11 0 -10 -8 6 -37z"/>
</g>
</svg>
